<svg preserveAspectRatio="none" width="100%" height="100%" overflow="visible" style="display: block;" viewBox="0 0 8 8" fill="none" xmlns="http://www.w3.org/2000/svg">
<g id="f7:car-fill" clip-path="url(#clip0_35_1190)">
<path id="Vector" d="M0.482714 7.10543H0.877857C1.12557 7.10543 1.31971 6.91457 1.31971 6.66686V6.10443C2.06314 6.15128 3.13786 6.18471 3.99829 6.18471C4.86214 6.18471 5.93686 6.15128 6.68029 6.10443V6.66686C6.68029 6.91457 6.87114 7.10543 7.12214 7.10543H7.51728C7.76843 7.10543 7.96257 6.91457 7.96257 6.66686V4.735C7.96257 4.17243 7.84871 3.85429 7.53743 3.45257L7.25614 3.08757C7.13229 2.485 6.91128 1.85214 6.79414 1.60443C6.61657 1.226 6.26843 1.00157 5.82314 0.941429C5.59886 0.914571 4.86557 0.894571 3.99829 0.894571C3.13457 0.894571 2.40114 0.918 2.17686 0.941429C1.73157 0.995 1.38343 1.226 1.206 1.60429C1.08886 1.85214 0.867714 2.485 0.743857 3.08757L0.462571 3.45257C0.151143 3.85443 0.0374286 4.17243 0.0374286 4.735V6.66686C0.0374286 6.91457 0.231714 7.10543 0.482714 7.10543ZM1.42029 2.80971C1.50057 2.44143 1.66129 1.96257 1.77171 1.76829C1.86214 1.61114 1.95929 1.544 2.14014 1.52071C2.39443 1.48386 2.96371 1.46371 3.99829 1.46371C5.03629 1.46371 5.60543 1.47714 5.86 1.52071C6.03743 1.54743 6.13443 1.611 6.22829 1.76843C6.34214 1.95929 6.49271 2.44129 6.57971 2.80971C6.61 2.93357 6.55971 2.98043 6.42914 2.97043C5.87343 2.937 5.21043 2.90014 3.99829 2.90014C2.78971 2.90014 2.12671 2.937 1.57086 2.97043C1.44029 2.98043 1.39343 2.93357 1.42014 2.80971M1.55729 5.31757C1.23929 5.31757 1.00157 5.07643 1.00157 4.76171C1.00157 4.44357 1.23929 4.206 1.55729 4.206C1.87543 4.206 2.11314 4.44357 2.11314 4.76171C2.11314 5.07643 1.87543 5.31743 1.55743 5.31743M6.44257 5.31743C6.12443 5.31743 5.88686 5.07629 5.88686 4.76157C5.88686 4.44343 6.12443 4.20586 6.44257 4.20586C6.75729 4.20586 6.99829 4.44343 6.99829 4.76157C6.99829 5.07629 6.75729 5.31743 6.44257 5.31743ZM3.11114 5.16329C2.87671 5.16329 2.71257 4.99586 2.71257 4.76143C2.71257 4.52371 2.87671 4.35971 3.11114 4.35971H4.889C5.12329 4.35971 5.28743 4.52371 5.28743 4.76143C5.28743 4.99571 5.12329 5.16329 4.88886 5.16329H3.11114Z" fill="black"/>
</g>
<defs>
<clipPath id="clip0_35_1190">
<rect width="8" height="8" fill="white"/>
</clipPath>
</defs>
</svg>
