<svg preserveAspectRatio="none" width="100%" height="100%" overflow="visible" style="display: block;" viewBox="0 0 24 24" fill="none" xmlns="http://www.w3.org/2000/svg">
<g id="tabler:eye-filled">
<path id="Vector" d="M12 4C16.29 4 19.863 6.429 22.665 11.154L22.885 11.533L22.93 11.633L22.96 11.716L22.974 11.771L22.988 11.853L22.999 11.953V12.063L22.985 12.174C22.9784 12.2111 22.9697 12.2479 22.959 12.284L22.92 12.392L22.884 12.467L22.868 12.497C20.104 17.333 16.568 19.877 12.313 19.996L12 20C7.604 20 3.963 17.451 1.132 12.496C1.04571 12.3449 1.00032 12.174 1.00032 12C1.00032 11.826 1.04571 11.6551 1.132 11.504C3.963 6.549 7.604 4 12 4ZM12 9C11.2044 9 10.4413 9.31607 9.87868 9.87868C9.31607 10.4413 9 11.2044 9 12C9 12.7956 9.31607 13.5587 9.87868 14.1213C10.4413 14.6839 11.2044 15 12 15C12.7956 15 13.5587 14.6839 14.1213 14.1213C14.6839 13.5587 15 12.7956 15 12C15 11.2044 14.6839 10.4413 14.1213 9.87868C13.5587 9.31607 12.7956 9 12 9Z" fill="var(--fill-0, black)"/>
</g>
</svg>
