<svg preserveAspectRatio="none" width="100%" height="100%" overflow="visible" style="display: block;" viewBox="0 0 24 24" fill="none" xmlns="http://www.w3.org/2000/svg">
<g id="fluent:food-16-filled">
<path id="Vector" d="M10.0845 1.581C10.1838 1.6302 10.2709 1.70078 10.3396 1.78767C10.4083 1.87455 10.457 1.97558 10.482 2.0835C10.509 2.202 11.25 5.373 11.25 7.5C11.25 8.925 10.587 10.1955 9.555 11.019C9.18 11.319 9 11.646 9 11.919V12.648C9 12.683 9.002 12.716 9.006 12.747C9.057 13.119 9.2415 14.5005 9.414 15.933C9.5835 17.3385 9.75 18.8715 9.75 19.5C9.75 20.2957 9.43393 21.0587 8.87132 21.6213C8.30871 22.1839 7.54565 22.5 6.75 22.5C5.95435 22.5 5.19129 22.1839 4.62868 21.6213C4.06607 21.0587 3.75 20.2957 3.75 19.5C3.75 18.87 3.9165 17.34 4.086 15.933C4.2585 14.5005 4.443 13.119 4.494 12.747L4.5 12.648V11.919C4.5 11.646 4.32 11.319 3.945 11.019C3.41622 10.5975 2.98924 10.0622 2.69579 9.45299C2.40234 8.84376 2.24997 8.17622 2.25 7.5C2.25 5.3805 2.985 2.226 3.018 2.085C3.05699 1.91826 3.15133 1.76965 3.28563 1.66341C3.41993 1.55717 3.58626 1.49957 3.7575 1.5C4.1775 1.5 4.518 1.8405 4.518 2.2605V6.7575C4.51209 6.8588 4.527 6.96023 4.56181 7.05553C4.59663 7.15084 4.65061 7.238 4.72042 7.31164C4.79023 7.38527 4.8744 7.44381 4.96772 7.48365C5.06103 7.52349 5.16153 7.54378 5.263 7.54326C5.36446 7.54275 5.46475 7.52145 5.55766 7.48066C5.65057 7.43988 5.73414 7.38049 5.8032 7.30616C5.87226 7.23182 5.92536 7.14412 5.95921 7.04846C5.99305 6.95281 6.00694 6.85123 6 6.75V2.25C6 2.05109 6.07902 1.86032 6.21967 1.71967C6.36032 1.57902 6.55109 1.5 6.75 1.5C6.94891 1.5 7.13968 1.57902 7.28033 1.71967C7.42098 1.86032 7.5 2.05109 7.5 2.25V6.789C7.50418 6.98592 7.58641 7.17312 7.72861 7.30941C7.87081 7.44571 8.06133 7.51993 8.25825 7.51575C8.45517 7.51157 8.64237 7.42934 8.77866 7.28714C8.91496 7.14494 8.98918 6.95442 8.985 6.7575V2.2575C8.985 1.839 9.324 1.5 9.744 1.5C9.777 1.5 9.924 1.5 10.0845 1.581ZM13.5 8.25C13.5 6.45979 14.2112 4.7429 15.477 3.47703C16.7429 2.21116 18.4598 1.5 20.25 1.5C20.4489 1.5 20.6397 1.57902 20.7803 1.71967C20.921 1.86032 21 2.05109 21 2.25V11.2095L21.0285 11.475C21.1478 12.5945 21.2623 13.7145 21.372 14.835C21.5565 16.719 21.75 18.831 21.75 19.5C21.75 20.2957 21.4339 21.0587 20.8713 21.6213C20.3087 22.1839 19.5456 22.5 18.75 22.5C17.9544 22.5 17.1913 22.1839 16.6287 21.6213C16.0661 21.0587 15.75 20.2957 15.75 19.5C15.75 18.831 15.9435 16.719 16.128 14.835C16.2225 13.8795 16.317 12.9645 16.3875 12.2865L16.4175 12H15C14.6022 12 14.2206 11.842 13.9393 11.5607C13.658 11.2794 13.5 10.8978 13.5 10.5V8.25Z" fill="white"/>
</g>
</svg>
