<svg preserveAspectRatio="none" width="100%" height="100%" overflow="visible" style="display: block;" viewBox="0 0 24 24" fill="none" xmlns="http://www.w3.org/2000/svg">
<g id="fluent:food-32-regular">
<path id="Vector" d="M5.01 1.5C4.1565 1.5 3.37875 2.06775 3.177 2.937C2.952 3.9075 2.625 5.5725 2.625 7.125C2.62483 7.91603 2.81715 8.69522 3.18536 9.39532C3.55357 10.0954 4.08662 10.6954 4.7385 11.1435C5.0895 11.3843 5.25 11.6783 5.25 11.9175C5.24975 11.9426 5.24825 11.9676 5.2455 11.9925C5.202 12.36 5.01675 13.9275 4.842 15.5505C4.6695 17.1465 4.5 18.8693 4.5 19.5C4.5 20.2957 4.81607 21.0587 5.37868 21.6213C5.94129 22.1839 6.70435 22.5 7.5 22.5C8.29565 22.5 9.05871 22.1839 9.62132 21.6213C10.1839 21.0587 10.5 20.2957 10.5 19.5C10.5 18.87 10.3297 17.1465 10.158 15.5505C9.98325 13.9275 9.798 12.3593 9.7545 11.9918C9.75175 11.9668 9.75025 11.9418 9.75 11.9168C9.75 11.6783 9.9105 11.3843 10.2607 11.1435C10.9128 10.6955 11.446 10.0955 11.8143 9.39544C12.1827 8.69533 12.3751 7.9161 12.375 7.125C12.375 5.57175 12.0487 3.90675 11.823 2.937C11.6212 2.06775 10.8435 1.5 9.99 1.5C9.54444 1.49933 9.11252 1.65365 8.76825 1.9365C8.40622 1.65325 7.95967 1.49956 7.5 1.5C7.0215 1.5 6.58125 1.66275 6.23175 1.9365C5.88748 1.65365 5.45556 1.49933 5.01 1.5ZM9.5625 3.4275C9.5625 3.31412 9.60754 3.20538 9.68771 3.12521C9.76788 3.04504 9.87662 3 9.99 3C10.185 3 10.3275 3.1245 10.362 3.27675C10.5795 4.2135 10.875 5.74575 10.875 7.125C10.8751 7.67279 10.7419 8.21236 10.4868 8.69714C10.2317 9.18192 9.86251 9.59733 9.411 9.9075C8.8185 10.3148 8.25 11.0123 8.25 11.9175C8.25 12.001 8.255 12.085 8.265 12.1695C8.3085 12.5348 8.493 14.097 8.667 15.711C8.8425 17.3513 9 18.9713 9 19.5C9 19.8978 8.84196 20.2794 8.56066 20.5607C8.27936 20.842 7.89782 21 7.5 21C7.10218 21 6.72064 20.842 6.43934 20.5607C6.15804 20.2794 6 19.8978 6 19.5C6 18.9713 6.15675 17.3513 6.333 15.711C6.507 14.097 6.6915 12.5348 6.735 12.1695C6.745 12.0845 6.75 12.0005 6.75 11.9175C6.75 11.0123 6.18075 10.3148 5.589 9.9075C5.13749 9.59733 4.76826 9.18192 4.51319 8.69714C4.25813 8.21236 4.12489 7.67279 4.125 7.125C4.125 5.745 4.4205 4.2135 4.638 3.27675C4.65877 3.1949 4.7071 3.12271 4.77485 3.07231C4.8426 3.0219 4.92564 2.99637 5.01 3C5.12338 3 5.23212 3.04504 5.31229 3.12521C5.39246 3.20538 5.4375 3.31412 5.4375 3.4275V7.5C5.4375 7.69891 5.51652 7.88968 5.65717 8.03033C5.79782 8.17098 5.98859 8.25 6.1875 8.25C6.38641 8.25 6.57718 8.17098 6.71783 8.03033C6.85848 7.88968 6.9375 7.69891 6.9375 7.5V3.5625C6.9375 3.41332 6.99676 3.27024 7.10225 3.16475C7.20774 3.05926 7.35082 3 7.5 3C7.64918 3 7.79226 3.05926 7.89775 3.16475C8.00324 3.27024 8.0625 3.41332 8.0625 3.5625V7.5C8.0625 7.69891 8.14152 7.88968 8.28217 8.03033C8.42282 8.17098 8.61359 8.25 8.8125 8.25C9.01141 8.25 9.20218 8.17098 9.34283 8.03033C9.48348 7.88968 9.5625 7.69891 9.5625 7.5V3.4275ZM15 7.125C14.9999 6.0958 15.3845 5.10372 16.0783 4.34356C16.7721 3.5834 17.7251 3.11006 18.75 3.0165V11.25C18.75 11.4593 18.7913 11.931 18.8453 12.4935C18.9015 13.0763 18.978 13.812 19.0582 14.5875V14.5898C19.2705 16.623 19.5 18.852 19.5 19.5C19.5 19.8978 19.342 20.2794 19.0607 20.5607C18.7794 20.842 18.3978 21 18 21C17.6022 21 17.2206 20.842 16.9393 20.5607C16.658 20.2794 16.5 19.8978 16.5 19.5C16.5 18.9645 16.659 17.1638 16.836 15.342C16.9643 14.0305 17.0981 12.7194 17.2372 11.409C17.2416 11.3693 17.2448 11.3296 17.247 11.2898C17.2524 11.188 17.237 11.0863 17.2018 10.9907C17.1666 10.8951 17.1123 10.8077 17.0422 10.7338C16.972 10.6599 16.8876 10.6011 16.794 10.5609C16.7004 10.5207 16.5996 10.5 16.4977 10.5H15.375C15.2755 10.5 15.1802 10.4605 15.1098 10.3902C15.0395 10.3198 15 10.2245 15 10.125V7.125ZM19.125 1.5C17.6332 1.5 16.2024 2.09263 15.1475 3.14752C14.0926 4.20242 13.5 5.63316 13.5 7.125V10.125C13.5 10.6223 13.6975 11.0992 14.0492 11.4508C14.4008 11.8025 14.8777 12 15.375 12H15.6667C15.5553 13.0651 15.4475 14.1306 15.3435 15.1965C15.171 16.974 15 18.8715 15 19.5C15 20.2957 15.3161 21.0587 15.8787 21.6213C16.4413 22.1839 17.2044 22.5 18 22.5C18.7956 22.5 19.5587 22.1839 20.1213 21.6213C20.6839 21.0587 21 20.2957 21 19.5C21 18.7613 20.7622 16.4753 20.5605 14.5268L20.5507 14.4353C20.4777 13.7402 20.407 13.045 20.3385 12.3495C20.28 11.751 20.25 11.3685 20.25 11.25V2.25C20.25 2.05109 20.171 1.86032 20.0303 1.71967C19.8897 1.57902 19.6989 1.5 19.5 1.5H19.125Z" fill="#F8F8F8"/>
</g>
</svg>
