<svg preserveAspectRatio="none" width="100%" height="100%" overflow="visible" style="display: block;" viewBox="0 0 24 24" fill="none" xmlns="http://www.w3.org/2000/svg">
<g id="Group">
<g id="Vector">
</g>
<path id="Vector_2" fill-rule="evenodd" clip-rule="evenodd" d="M18.494 3.801C20.589 5.022 22.063 7.501 21.998 10.393C21.917 14.003 19.108 17.187 14.319 20.031C13.609 20.453 12.861 21 12 21C11.155 21 10.375 20.443 9.68 20.03C4.893 17.187 2.083 14.002 2.002 10.393C1.937 7.501 3.411 5.023 5.506 3.801C7.466 2.66 9.928 2.653 12 4.338C14.072 2.653 16.534 2.659 18.494 3.801ZM17.487 5.53C16.093 4.718 14.351 4.747 12.843 6.273C12.7324 6.38396 12.6011 6.47201 12.4564 6.53209C12.3117 6.59216 12.1566 6.62309 12 6.62309C11.8434 6.62309 11.6883 6.59216 11.5436 6.53209C11.3989 6.47201 11.2676 6.38396 11.157 6.273C9.649 4.747 7.907 4.718 6.513 5.53C5.069 6.372 3.953 8.158 4.002 10.35C4.058 12.861 6.042 15.544 10.702 18.312C11.11 18.555 11.536 18.866 12 18.995C12.464 18.866 12.89 18.555 13.298 18.312C17.958 15.544 19.942 12.862 19.998 10.349C20.048 8.159 18.931 6.372 17.487 5.53Z" fill="#F8F8F8"/>
</g>
</svg>
