<svg preserveAspectRatio="none" width="100%" height="100%" overflow="visible" style="display: block;" viewBox="0 0 24 24" fill="none" xmlns="http://www.w3.org/2000/svg">
<g id="material-symbols:news">
<path id="Vector" d="M5 21C4.45 21 3.97933 20.8043 3.588 20.413C3.19667 20.0217 3.00067 19.5507 3 19V5C3 4.45 3.196 3.97933 3.588 3.588C3.98 3.19667 4.45067 3.00067 5 3H16L21 8V19C21 19.55 20.8043 20.021 20.413 20.413C20.0217 20.805 19.5507 21.0007 19 21H5ZM7 17H17V15H7V17ZM7 13H17V11H7V13ZM15 9H19L15 5V9ZM7 9H12V7H7V9Z" fill="url(#paint0_linear_35_1169)"/>
</g>
<defs>
<linearGradient id="paint0_linear_35_1169" x1="12" y1="3" x2="12" y2="21" gradientUnits="userSpaceOnUse">
<stop stop-color="#5691FF"/>
<stop offset="1" stop-color="#DE50D0"/>
</linearGradient>
</defs>
</svg>
