<svg preserveAspectRatio="none" width="100%" height="100%" overflow="visible" style="display: block;" viewBox="0 0 24 24" fill="none" xmlns="http://www.w3.org/2000/svg">
<g id="basil:notification-outline">
<path id="Vector" fill-rule="evenodd" clip-rule="evenodd" d="M13 3C13 2.73478 12.8946 2.48043 12.7071 2.29289C12.5196 2.10536 12.2652 2 12 2C11.7348 2 11.4804 2.10536 11.2929 2.29289C11.1054 2.48043 11 2.73478 11 3V3.75H10.443C9.37103 3.74993 8.33933 4.15839 7.55792 4.89224C6.77652 5.62608 6.30416 6.63014 6.237 7.7L6.016 11.234C5.93173 12.5814 5.4793 13.8799 4.708 14.988C4.54863 15.2171 4.45126 15.4835 4.42534 15.7613C4.39943 16.0392 4.44586 16.319 4.56011 16.5736C4.67437 16.8281 4.85256 17.0488 5.07737 17.2142C5.30217 17.3795 5.56593 17.4838 5.843 17.517L9.25 17.925V19C9.25 19.7293 9.53973 20.4288 10.0555 20.9445C10.5712 21.4603 11.2707 21.75 12 21.75C12.7293 21.75 13.4288 21.4603 13.9445 20.9445C14.4603 20.4288 14.75 19.7293 14.75 19V17.925L18.157 17.516C18.4339 17.4827 18.6975 17.3784 18.9222 17.2131C19.1468 17.0478 19.3249 16.8273 19.4391 16.5729C19.5534 16.3184 19.5999 16.0388 19.5741 15.7611C19.5483 15.4834 19.4511 15.2171 19.292 14.988C18.5207 13.88 18.0682 12.5815 17.984 11.234L17.763 7.701C17.6961 6.63096 17.2238 5.62665 16.4424 4.8926C15.661 4.15855 14.6291 3.74995 13.557 3.75H13V3ZM10.443 5.25C9.75257 5.24992 9.08807 5.51297 8.58478 5.98561C8.08149 6.45825 7.77725 7.10493 7.734 7.794L7.514 11.328C7.41234 12.949 6.86792 14.511 5.94 15.844C5.92847 15.8606 5.92142 15.8798 5.91954 15.8999C5.91765 15.92 5.921 15.9403 5.92925 15.9587C5.93751 15.9771 5.95039 15.9931 5.96664 16.005C5.98289 16.017 6.00196 16.0246 6.022 16.027L9.759 16.476C11.248 16.654 12.752 16.654 14.241 16.476L17.978 16.027C17.998 16.0246 18.0171 16.017 18.0334 16.005C18.0496 15.9931 18.0625 15.9771 18.0707 15.9587C18.079 15.9403 18.0823 15.92 18.0805 15.8999C18.0786 15.8798 18.0715 15.8606 18.06 15.844C17.1324 14.5109 16.5884 12.9489 16.487 11.328L16.266 7.794C16.2228 7.10493 15.9185 6.45825 15.4152 5.98561C14.9119 5.51297 14.2474 5.24992 13.557 5.25H10.443ZM12 20.25C11.31 20.25 10.75 19.69 10.75 19V18.25H13.25V19C13.25 19.69 12.69 20.25 12 20.25Z" fill="white"/>
<circle id="Ellipse 19" cx="5" cy="16" r="3" fill="#FF0000"/>
</g>
</svg>
