<svg preserveAspectRatio="none" width="100%" height="100%" overflow="visible" style="display: block;" viewBox="0 0 13 12" fill="none" xmlns="http://www.w3.org/2000/svg">
<g id="Group">
<g id="Vector">
</g>
<path id="Vector_2" d="M5.60144 1.43397C5.65789 1.33955 5.73875 1.26121 5.83596 1.20676C5.93316 1.15231 6.04332 1.12366 6.15543 1.12366C6.26755 1.12366 6.3777 1.15231 6.47491 1.20676C6.57211 1.26121 6.65297 1.33955 6.70942 1.43397L8.14313 3.83297L10.9274 4.42097C11.037 4.44417 11.1383 4.49495 11.2214 4.56824C11.3046 4.64153 11.3665 4.73478 11.4011 4.83869C11.4357 4.94259 11.4418 5.05353 11.4187 5.16043C11.3956 5.26734 11.3442 5.36648 11.2696 5.44797L9.37165 7.51847L9.6589 10.281C9.67024 10.3898 9.65209 10.4995 9.60629 10.5993C9.56049 10.6991 9.48862 10.7855 9.39788 10.8498C9.30713 10.914 9.20067 10.954 9.08914 10.9656C8.9776 10.9772 8.86489 10.9601 8.76226 10.916L6.15543 9.79597L3.5486 10.916C3.44597 10.9601 3.33326 10.9772 3.22173 10.9656C3.11019 10.954 3.00374 10.914 2.91299 10.8498C2.82224 10.7855 2.75038 10.6991 2.70457 10.5993C2.65877 10.4995 2.64063 10.3898 2.65196 10.281L2.93922 7.51847L1.04129 5.44847C0.966513 5.36699 0.914976 5.26781 0.89182 5.16083C0.868665 5.05386 0.874701 4.94284 0.909327 4.83885C0.943953 4.73486 1.00596 4.64155 1.08915 4.56822C1.17234 4.4949 1.27381 4.44412 1.38343 4.42097L4.16774 3.83297L5.60144 1.43397Z" fill="#FFD233"/>
</g>
</svg>
