<svg preserveAspectRatio="none" width="100%" height="100%" overflow="visible" style="display: block;" viewBox="0 0 86 13" fill="none" xmlns="http://www.w3.org/2000/svg">
<g id="Group 198">
<g id="Battery">
<rect id="Border" opacity="0.35" x="59.4113" y="0.5" width="23.0925" height="11.3331" rx="2.16667" fill="var(--fill-0, white)" stroke="var(--stroke-0, black)"/>
<path id="Cap" opacity="0.4" d="M84.1007 3.99023V8.34309C84.982 7.97443 85.5551 7.11682 85.5551 6.16666C85.5551 5.21651 84.982 4.3589 84.1007 3.99023" fill="var(--fill-0, white)"/>
<rect id="Capacity" x="61.1027" y="2.17627" width="19.712" height="7.98024" rx="1.33333" fill="var(--fill-0, white)"/>
</g>
<path id="Wifi" d="M34.244 9.1416C35.6409 7.96754 37.6869 7.96754 39.0838 9.1416C39.154 9.20473 39.1952 9.29368 39.1971 9.3877C39.1991 9.48183 39.1612 9.57272 39.0936 9.63867L36.9071 11.832C36.843 11.8965 36.7551 11.9326 36.6639 11.9326C36.5727 11.9326 36.4849 11.8965 36.4207 11.832L34.2332 9.63867C34.1657 9.57268 34.1287 9.48179 34.1307 9.3877C34.1327 9.29364 34.1738 9.20469 34.244 9.1416ZM31.326 6.21484C34.3355 3.43323 38.9962 3.43341 42.0057 6.21484C42.0736 6.28005 42.1131 6.37004 42.1141 6.46387C42.1151 6.55766 42.0781 6.64827 42.0116 6.71484L40.7469 7.98438C40.6166 8.11402 40.406 8.11645 40.2723 7.99023C39.284 7.10099 37.9981 6.6093 36.6649 6.60938C35.3326 6.60992 34.048 7.10171 33.0604 7.99023C32.9268 8.11641 32.7161 8.11392 32.5858 7.98438L31.3211 6.71484C31.2545 6.64836 31.2177 6.55771 31.2186 6.46387C31.2196 6.37004 31.2581 6.28003 31.326 6.21484ZM28.4061 3.29688C33.0221 -1.09898 40.3048 -1.09901 44.9207 3.29688C44.9873 3.36205 45.0246 3.45108 45.0252 3.54395C45.0258 3.63694 44.9895 3.72692 44.9237 3.79297L43.6571 5.0625C43.5266 5.19278 43.3149 5.19468 43.1825 5.06641C41.4239 3.40508 39.0904 2.47871 36.6639 2.47852C34.237 2.47851 31.9023 3.40481 30.1434 5.06641C30.011 5.19474 29.7991 5.19293 29.6688 5.0625L28.4032 3.79297C28.3372 3.72684 28.3 3.63708 28.3006 3.54395C28.3014 3.45096 28.3393 3.36204 28.4061 3.29688Z" fill="var(--fill-0, white)"/>
<path id="Cellular Connection" d="M2.19043 7.62061C2.79504 7.62072 3.28498 8.10771 3.28516 8.7085V10.8853C3.28515 11.4862 2.79515 11.973 2.19043 11.9731H1.09473C0.490092 11.9729 2.46317e-06 11.4861 0 10.8853V8.7085C0.000176143 8.10777 0.490199 7.62081 1.09473 7.62061H2.19043ZM7.2998 5.44482C7.90462 5.44482 8.39453 5.93171 8.39453 6.53271V10.8853C8.39453 11.4863 7.90462 11.9731 7.2998 11.9731H6.20508C5.60026 11.9731 5.10938 11.4863 5.10938 10.8853V6.53271C5.10938 5.93171 5.60026 5.44482 6.20508 5.44482H7.2998ZM12.4092 2.90479C13.0138 2.9049 13.5037 3.39189 13.5039 3.99268V10.8853C13.5038 11.4861 13.0138 11.973 12.4092 11.9731H11.3135C10.7089 11.9729 10.2189 11.486 10.2188 10.8853V3.99268C10.2189 3.39195 10.7089 2.90499 11.3135 2.90479H12.4092ZM17.5225 0.365723C18.1271 0.365833 18.617 0.852826 18.6172 1.45361V10.8853C18.6171 11.4861 18.1271 11.973 17.5225 11.9731H16.4268C15.8222 11.9729 15.3321 11.4861 15.332 10.8853V1.45361C15.3322 0.852885 15.8222 0.365929 16.4268 0.365723H17.5225Z" fill="var(--fill-0, white)"/>
</g>
</svg>
