<svg preserveAspectRatio="none" width="100%" height="100%" overflow="visible" style="display: block;" viewBox="0 0 17 17" fill="none" xmlns="http://www.w3.org/2000/svg">
<g id="f7:car-fill">
<path id="Vector" d="M1.02577 15.099H1.86545C2.39184 15.099 2.80439 14.6935 2.80439 14.1671V12.9719C4.38418 13.0715 6.66795 13.1425 8.49636 13.1425C10.3321 13.1425 12.6158 13.0715 14.1956 12.9719V14.1671C14.1956 14.6935 14.6012 15.099 15.1346 15.099H15.9742C16.5079 15.099 16.9205 14.6935 16.9205 14.1671V10.0619C16.9205 8.86641 16.6785 8.19036 16.017 7.33671L15.4193 6.56109C15.1561 5.28063 14.6865 3.9358 14.4376 3.40941C14.0602 2.60525 13.3204 2.12834 12.3742 2.00054C11.8976 1.94346 10.3393 1.90096 8.49636 1.90096C6.66096 1.90096 5.10243 1.95075 4.62582 2.00054C3.67959 2.11437 2.93979 2.60525 2.56275 3.40911C2.31382 3.9358 1.84389 5.28063 1.5807 6.56109L0.982964 7.33671C0.321178 8.19066 0.0795357 8.86641 0.0795357 10.0619V14.1671C0.0795357 14.6935 0.492393 15.099 1.02577 15.099ZM3.01811 5.97064C3.18871 5.18804 3.53023 4.17046 3.76489 3.75761C3.95705 3.42368 4.16348 3.281 4.5478 3.23152C5.08816 3.1532 6.29789 3.11039 8.49636 3.11039C10.7021 3.11039 11.9115 3.13893 12.4525 3.23152C12.8295 3.28829 13.0357 3.42337 13.2351 3.75791C13.4771 4.16348 13.797 5.18773 13.9819 5.97064C14.0462 6.23384 13.9394 6.33341 13.6619 6.31216C12.481 6.24112 11.0722 6.1628 8.49636 6.1628C5.92814 6.1628 4.51927 6.24112 3.33807 6.31216C3.06061 6.33341 2.96104 6.23384 3.0178 5.97064M3.30923 11.2998C2.63348 11.2998 2.12834 10.7874 2.12834 10.1186C2.12834 9.44259 2.63348 8.93775 3.30923 8.93775C3.98529 8.93775 4.49043 9.44259 4.49043 10.1186C4.49043 10.7874 3.98529 11.2995 3.30954 11.2995M13.6905 11.2995C13.0144 11.2995 12.5096 10.7871 12.5096 10.1183C12.5096 9.44229 13.0144 8.93745 13.6905 8.93745C14.3592 8.93745 14.8714 9.44229 14.8714 10.1183C14.8714 10.7871 14.3592 11.2995 13.6905 11.2995ZM6.61118 10.972C6.11302 10.972 5.76421 10.6162 5.76421 10.118C5.76421 9.61289 6.11302 9.26439 6.61118 9.26439H10.3891C10.887 9.26439 11.2358 9.61289 11.2358 10.118C11.2358 10.6159 10.887 10.972 10.3888 10.972H6.61118Z" fill="#000000"/>
</g>
</svg>
