<svg preserveAspectRatio="none" width="100%" height="100%" overflow="visible" style="display: block;" viewBox="0 0 24 24" fill="none" xmlns="http://www.w3.org/2000/svg">
<g id="f7:car-fill">
<path id="Vector" d="M9.61817 21.1916H8.43968C7.69108 21.1916 7.11163 20.6224 7.11163 19.8836V14.1219C7.11163 12.444 7.45078 11.4956 8.3796 10.2971L9.21853 9.2085C9.58792 7.41135 10.2475 5.52388 10.5968 4.78466C11.126 3.65644 12.1643 2.96749 13.4924 2.80772C14.1613 2.73784 16.3487 2.66797 18.9247 2.66797V4.36541C15.8392 4.36541 14.1413 4.42549 13.3829 4.53541C12.8435 4.60486 12.5538 4.80511 12.2841 5.27378C11.9547 5.85323 11.4754 7.2814 11.2359 8.3798C11.1563 8.7492 11.2956 8.88895 11.685 8.85912C13.3428 8.75942 15.3202 8.6495 18.9247 8.6495L18.93 13.0026H16.2789C15.5797 13.0026 15.0901 13.4917 15.0901 14.2007C15.0901 14.8999 15.5797 15.3992 16.2789 15.3992L18.9298 15.3382L18.9247 18.4456C16.3585 18.4456 13.1532 18.3459 10.936 18.2061V19.8836C10.936 20.6224 10.357 21.1916 9.61817 21.1916Z" fill="url(#paint0_linear_3_985)"/>
</g>
<defs>
<linearGradient id="paint0_linear_3_985" x1="13.0208" y1="2.66797" x2="13.0208" y2="21.1916" gradientUnits="userSpaceOnUse">
<stop stop-color="#817DF1"/>
<stop offset="1" stop-color="#9773E9"/>
</linearGradient>
</defs>
</svg>
