<svg preserveAspectRatio="none" width="100%" height="100%" overflow="visible" style="display: block;" viewBox="0 0 57 71" fill="none" xmlns="http://www.w3.org/2000/svg">
<g id="Group 427320921">
<path id="Vector" d="M28.5 0C12.786 0 0.000290144 12.7409 0.000290144 28.3822C-0.103021 51.262 27.417 70.2332 28.5 71C28.5 71 57.103 51.262 56.9997 28.4C56.9997 12.741 44.214 0 28.5 0ZM28.5 42.6C20.627 42.6 14.2501 36.2455 14.2501 28.4C14.2501 20.5545 20.627 14.2 28.5 14.2C36.373 14.2 42.7499 20.5545 42.7499 28.4C42.7499 36.2455 36.373 42.6 28.5 42.6Z" fill="#000000"/>
<circle id="Ellipse 22" cx="28.5" cy="28.5" r="14.5" fill="#FFFFFF"/>
<g id="fluent:food-16-filled">
<path id="Vector_2" d="M26.723 21.054C26.7892 21.0868 26.8473 21.1339 26.8931 21.1918C26.9389 21.2497 26.9713 21.3171 26.988 21.389C27.006 21.468 27.5 23.582 27.5 25C27.5 25.95 27.058 26.797 26.37 27.346C26.12 27.546 26 27.764 26 27.946V28.432C26 28.4553 26.0013 28.4773 26.004 28.498C26.038 28.746 26.161 29.667 26.276 30.622C26.389 31.559 26.5 32.581 26.5 33C26.5 33.5304 26.2893 34.0391 25.9142 34.4142C25.5391 34.7893 25.0304 35 24.5 35C23.9696 35 23.4609 34.7893 23.0858 34.4142C22.7107 34.0391 22.5 33.5304 22.5 33C22.5 32.58 22.611 31.56 22.724 30.622C22.839 29.667 22.962 28.746 22.996 28.498L23 28.432V27.946C23 27.764 22.88 27.546 22.63 27.346C22.2775 27.065 21.9928 26.7081 21.7972 26.302C21.6016 25.8958 21.5 25.4508 21.5 25C21.5 23.587 21.99 21.484 22.012 21.39C22.038 21.2788 22.1009 21.1798 22.1904 21.1089C22.28 21.0381 22.3908 20.9997 22.505 21C22.785 21 23.012 21.227 23.012 21.507V24.505C23.0081 24.5725 23.018 24.6402 23.0412 24.7037C23.0644 24.7672 23.1004 24.8253 23.1469 24.8744C23.1935 24.9235 23.2496 24.9625 23.3118 24.9891C23.374 25.0157 23.441 25.0292 23.5087 25.0288C23.5763 25.0285 23.6432 25.0143 23.7051 24.9871C23.767 24.9599 23.8228 24.9203 23.8688 24.8708C23.9148 24.8212 23.9502 24.7627 23.9728 24.699C23.9954 24.6352 24.0046 24.5675 24 24.5V21.5C24 21.3674 24.0527 21.2402 24.1464 21.1464C24.2402 21.0527 24.3674 21 24.5 21C24.6326 21 24.7598 21.0527 24.8536 21.1464C24.9473 21.2402 25 21.3674 25 21.5V24.526C25.0028 24.6573 25.0576 24.7821 25.1524 24.8729C25.2472 24.9638 25.3742 25.0133 25.5055 25.0105C25.6368 25.0077 25.7616 24.9529 25.8524 24.8581C25.9433 24.7633 25.9928 24.6363 25.99 24.505V21.505C25.99 21.226 26.216 21 26.496 21C26.518 21 26.616 21 26.723 21.054ZM29 25.5C29 24.3065 29.4741 23.1619 30.318 22.318C31.1619 21.4741 32.3065 21 33.5 21C33.6326 21 33.7598 21.0527 33.8536 21.1464C33.9473 21.2402 34 21.3674 34 21.5V27.473L34.019 27.65C34.0985 28.3963 34.1749 29.143 34.248 29.89C34.371 31.146 34.5 32.554 34.5 33C34.5 33.5304 34.2893 34.0391 33.9142 34.4142C33.5391 34.7893 33.0304 35 32.5 35C31.9696 35 31.4609 34.7893 31.0858 34.4142C30.7107 34.0391 30.5 33.5304 30.5 33C30.5 32.554 30.629 31.146 30.752 29.89C30.815 29.253 30.878 28.643 30.925 28.191L30.945 28H30C29.7348 28 29.4804 27.8946 29.2929 27.7071C29.1054 27.5196 29 27.2652 29 27V25.5Z" fill="#000000"/>
</g>
</g>
</svg>
