<svg preserveAspectRatio="none" width="100%" height="100%" overflow="visible" style="display: block;" viewBox="0 0 85 106" fill="none" xmlns="http://www.w3.org/2000/svg">
<g id="Group 427322721">
<path id="Vector" fill-rule="evenodd" clip-rule="evenodd" d="M66.4115 1.45036C66.0585 1.01231 65.611 0.656463 65.1012 0.408396C64.2768 1.21891e-05 63.5217 1.20481e-05 63.3522 1.20481e-05C61.1949 1.20481e-05 59.4536 1.70917 59.4536 3.81915V26.5071C59.4751 27.5 59.0938 28.4605 58.3938 29.1774C57.6937 29.8944 56.7322 30.309 55.7207 30.33C54.7092 30.3511 53.7306 29.9769 53.0002 29.2897C52.2698 28.6026 51.8474 27.6588 51.826 26.6659V3.78134C51.826 2.77847 51.4201 1.81667 50.6977 1.10754C49.9752 0.398401 48.9954 1.20481e-05 47.9737 1.20481e-05V105.941C52.0605 105.941 55.9799 104.284 58.8697 101.447C61.7595 98.6105 63.383 94.7634 63.383 90.7519C63.383 87.5831 62.5278 79.8541 61.6572 72.7679C60.7711 65.5455 59.8235 58.5803 59.5615 56.7048C59.5409 56.5485 59.5307 56.3821 59.5307 56.2057V52.5302C59.5307 51.1538 60.4552 49.5052 62.3814 47.9926C67.6822 43.8407 71.0877 37.4352 71.0877 30.2506C71.0877 19.7709 67.4529 4.26448 67.158 3.00637C67.1511 2.97706 67.146 2.95549 67.1429 2.94189C67.0143 2.39779 66.7645 1.88841 66.4115 1.45036Z" fill="#FFFFFF"/>
<g id="Group 427320921">
<path id="Vector_2" fill-rule="evenodd" clip-rule="evenodd" d="M0.00043267 42.3244C0.00043267 18.9997 19.5668 0 43 0V21C31.2595 21 21.2502 30.6514 21.2502 42.3509C21.2502 54.0503 31.2595 63.5 43 63.5V106C42.9747 105.982 42.4396 105.835 42.3952 105.803C39.6073 103.844 -0.151211 75.908 0.00043267 42.3244Z" fill="#FFFFFF"/>
</g>
</g>
</svg>
