<svg preserveAspectRatio="none" width="100%" height="100%" overflow="visible" style="display: block;" viewBox="0 0 127 127" fill="none" xmlns="http://www.w3.org/2000/svg">
<g id="Group 427320920">
<circle id="Ellipse 20" cx="63.5" cy="63.5" r="62.5" fill="white" stroke="black" stroke-width="2"/>
<path id="Vector 11" d="M86 122L51 1.5M5 38.5L16.5 106.5" stroke="black" stroke-width="5"/>
<path id="Vector 12" d="M115 41L82 106L69 109.5L64 96M84.5 115L109.5 68M112 59L118.5 50L124.5 55M87.5 17L94.0887 38.5M97 48L94.0887 38.5M91 24L107.5 19C111.226 23.5 113.76 33.7 94.0887 38.5M63.5 2L68 17L81.0444 12.75M94.0887 8.5L81.0444 12.75M81.0444 12.75L78 7M37.5 7C42.1667 20.5 51.3 49 50.5 55C49.7 61 41.5 59.1667 37.5 57.5M29.5 19L34.4697 39.5M37.5 52L34.4697 39.5M34.4697 39.5L22 41.5M16.5 22.5C20.3333 34.8333 27.2 60.1 24 62.5C20.8 64.9 13.6667 65.5 10.5 65.5M13.5 79L28.5 76.5C27.1667 81.3333 27.1 87.8 37.5 75C47.9 62.2 62.8333 62.6667 69 64.5M50.5 103L59 125M50.5 103L53 99M50.5 103L45 110.5L48.5 123.5M29.5 115L25 85.5" stroke="black"/>
</g>
</svg>
