<svg preserveAspectRatio="none" width="100%" height="100%" overflow="visible" style="display: block;" viewBox="0 0 24 24" xmlns="http://www.w3.org/2000/svg">
  <g>
    <path fill-rule="evenodd" clip-rule="evenodd" d="M1.38771 10.3577C0.453428 11.5633 0.112286 12.5173 0.112286 14.205L3.00471 14.2851C3.00471 13.3307 3.71786 12.618 4.67186 12.618C5.62629 12.618 6.33943 13.3307 6.33943 14.2851C6.33943 14.965 5.96946 15.5304 5.40614 15.7937L6.53057 16.5L8.50001 18.3133L9.26353 18.523C10.205 18.543 11.1355 18.5541 11.9949 18.5541C12.633 18.5541 13.3095 18.5481 14 18.5368L16.5 17L18.4863 15.7383C17.9837 15.4562 17.6606 14.9205 17.6606 14.2847C17.6606 13.3303 18.3733 12.6176 19.3277 12.6176C20.2719 12.6176 20.9949 13.3303 20.9949 14.2847L23.8877 14.2851V14.205C23.8877 12.5173 23.5461 11.5629 22.6123 10.3577L21.7684 9.26271C21.3969 7.455 20.7339 5.55643 20.3824 4.81329C19.8497 3.678 18.8053 3.00471 17.4694 2.82429C16.7966 2.74371 14.5967 2.68371 11.9949 2.68371C9.40371 2.68371 7.20343 2.754 6.53057 2.82429C5.19471 2.985 4.15029 3.678 3.618 4.81286C3.26657 5.55643 2.60314 7.455 2.23157 9.26271L1.38771 10.3577ZM4.26086 8.42914C4.50171 7.32428 4.98386 5.88771 5.31514 5.30486C5.58643 4.83343 5.87786 4.632 6.42043 4.56214C7.18328 4.45157 8.89114 4.39114 11.9949 4.39114C15.1089 4.39114 16.8163 4.43143 17.58 4.56214C18.1123 4.64229 18.4033 4.833 18.6849 5.30529C19.0264 5.87786 19.4781 7.32386 19.7391 8.42914C19.83 8.80071 19.6791 8.94128 19.2874 8.91128C17.6203 8.811 15.6313 8.70043 11.9949 8.70043C8.36914 8.70043 6.38014 8.811 4.71257 8.91128C4.32086 8.94128 4.18071 8.80071 4.26086 8.42914ZM9.33343 15.4899C8.63014 15.4899 8.13771 14.9876 8.13771 14.2843C8.13771 13.5711 8.63014 13.0791 9.33343 13.0791H14.667C15.3699 13.0791 15.8623 13.5711 15.8623 14.2843C15.8623 14.9871 15.3699 15.4899 14.6666 15.4899H9.33343Z" fill="currentColor"/>
  </g>
</svg>

